<mxfile host="Electron" agent="Mozilla/5.0 (Windows NT 10.0; Win64; x64) AppleWebKit/537.36 (KHTML, like Gecko) draw.io/25.0.2 Chrome/128.0.6613.186 Electron/32.2.5 Safari/537.36" version="25.0.2">
  <diagram name="第 1 页" id="ZHVzXDYq7qRyxSr-z3AW">
    <mxGraphModel dx="4348" dy="1410" grid="0" gridSize="10" guides="1" tooltips="1" connect="0" arrows="0" fold="1" page="0" pageScale="1" pageWidth="1200" pageHeight="1920" background="#1F1F1F" math="0" shadow="0">
      <root>
        <mxCell id="0" />
        <mxCell id="1" parent="0" />
        <mxCell id="0NZ42fV0YaBmnF-6rHme-1" value="艺术的本质是表达" style="rounded=1;whiteSpace=wrap;html=1;fontSize=20;strokeWidth=3;points=[[0,0.5,0,0,0],[0.5,0,0,0,0],[0.5,1,0,0,0],[1,0.5,0,0,0]];" parent="1" vertex="1">
          <mxGeometry x="-948" y="444" width="215" height="60" as="geometry" />
        </mxCell>
        <mxCell id="0NZ42fV0YaBmnF-6rHme-5" value="主题" style="rounded=1;whiteSpace=wrap;html=1;fontSize=20;strokeWidth=3;points=[[0,0.5,0,0,0],[0.5,0,0,0,0],[0.5,1,0,0,0],[1,0.5,0,0,0]];" parent="1" vertex="1">
          <mxGeometry x="-571" y="1038" width="150" height="60" as="geometry" />
        </mxCell>
        <mxCell id="0NZ42fV0YaBmnF-6rHme-6" value="故事" style="rounded=1;whiteSpace=wrap;html=1;fontSize=20;strokeWidth=3;points=[[0,0.5,0,0,0],[0.5,0,0,0,0],[0.5,1,0,0,0],[1,0.5,0,0,0]];" parent="1" vertex="1">
          <mxGeometry x="-234" y="1038" width="150" height="60" as="geometry" />
        </mxCell>
        <mxCell id="0NZ42fV0YaBmnF-6rHme-9" value="剧本(文字)" style="rounded=1;whiteSpace=wrap;html=1;fontSize=20;strokeWidth=3;points=[[0,0.5,0,0,0],[0.5,0,0,0,0],[0.5,1,0,0,0],[1,0.5,0,0,0]];" parent="1" vertex="1">
          <mxGeometry x="125" y="1036" width="150" height="60" as="geometry" />
        </mxCell>
        <mxCell id="0NZ42fV0YaBmnF-6rHme-10" value="谁在什么环境下做了什么" style="rounded=1;whiteSpace=wrap;html=1;fontSize=20;strokeWidth=3;points=[[0,0.5,0,0,0],[0.5,0,0,0,0],[0.5,1,0,0,0],[1,0.5,0,0,0]];" parent="1" vertex="1">
          <mxGeometry x="130" y="1229" width="150" height="60" as="geometry" />
        </mxCell>
        <mxCell id="0NZ42fV0YaBmnF-6rHme-11" value="讲故事很简单,&lt;div&gt;但讲有趣的故事很难&lt;/div&gt;" style="rounded=1;whiteSpace=wrap;html=1;fontSize=20;strokeWidth=3;points=[[0,0.5,0,0,0],[0.5,0,0,0,0],[0.5,1,0,0,0],[1,0.5,0,0,0]];" parent="1" vertex="1">
          <mxGeometry x="-265" y="1195.5" width="205" height="99" as="geometry" />
        </mxCell>
        <mxCell id="0NZ42fV0YaBmnF-6rHme-12" value="情绪, 哲思...&lt;div&gt;一句话&lt;/div&gt;" style="rounded=1;whiteSpace=wrap;html=1;fontSize=20;strokeWidth=3;points=[[0,0.5,0,0,0],[0.5,0,0,0,0],[0.5,1,0,0,0],[1,0.5,0,0,0]];" parent="1" vertex="1">
          <mxGeometry x="-574" y="1219" width="150" height="60" as="geometry" />
        </mxCell>
        <mxCell id="0NZ42fV0YaBmnF-6rHme-15" value="" style="endArrow=classic;html=1;rounded=0;strokeWidth=3;" parent="1" source="0NZ42fV0YaBmnF-6rHme-5" target="0NZ42fV0YaBmnF-6rHme-6" edge="1">
          <mxGeometry width="50" height="50" relative="1" as="geometry">
            <mxPoint x="-305" y="708" as="sourcePoint" />
            <mxPoint x="-175" y="708.4200000000001" as="targetPoint" />
          </mxGeometry>
        </mxCell>
        <mxCell id="0NZ42fV0YaBmnF-6rHme-16" value="" style="endArrow=classic;html=1;rounded=0;strokeWidth=3;" parent="1" source="0NZ42fV0YaBmnF-6rHme-6" target="0NZ42fV0YaBmnF-6rHme-9" edge="1">
          <mxGeometry width="50" height="50" relative="1" as="geometry">
            <mxPoint x="236" y="712" as="sourcePoint" />
            <mxPoint x="366" y="712.4200000000001" as="targetPoint" />
          </mxGeometry>
        </mxCell>
        <mxCell id="0NZ42fV0YaBmnF-6rHme-20" value="视听设计(图文)" style="rounded=1;whiteSpace=wrap;html=1;fontSize=20;strokeWidth=3;points=[[0,0.5,0,0,0],[0.5,0,0,0,0],[0.5,1,0,0,0],[1,0.5,0,0,0]];" parent="1" vertex="1">
          <mxGeometry x="580" y="1033" width="150" height="60" as="geometry" />
        </mxCell>
        <mxCell id="0NZ42fV0YaBmnF-6rHme-21" value="" style="endArrow=classic;html=1;rounded=0;strokeWidth=3;" parent="1" source="0NZ42fV0YaBmnF-6rHme-12" target="0NZ42fV0YaBmnF-6rHme-5" edge="1">
          <mxGeometry width="50" height="50" relative="1" as="geometry">
            <mxPoint x="125" y="1157" as="sourcePoint" />
            <mxPoint x="255" y="1157.42" as="targetPoint" />
          </mxGeometry>
        </mxCell>
        <mxCell id="0NZ42fV0YaBmnF-6rHme-22" value="" style="endArrow=classic;html=1;rounded=0;strokeWidth=3;" parent="1" source="0NZ42fV0YaBmnF-6rHme-11" target="0NZ42fV0YaBmnF-6rHme-6" edge="1">
          <mxGeometry width="50" height="50" relative="1" as="geometry">
            <mxPoint x="-165" y="687" as="sourcePoint" />
            <mxPoint x="-35" y="687.4200000000001" as="targetPoint" />
          </mxGeometry>
        </mxCell>
        <mxCell id="0NZ42fV0YaBmnF-6rHme-23" value="" style="endArrow=classic;html=1;rounded=0;strokeWidth=3;" parent="1" source="0NZ42fV0YaBmnF-6rHme-10" target="0NZ42fV0YaBmnF-6rHme-9" edge="1">
          <mxGeometry width="50" height="50" relative="1" as="geometry">
            <mxPoint x="226" y="784" as="sourcePoint" />
            <mxPoint x="356" y="784.4200000000001" as="targetPoint" />
          </mxGeometry>
        </mxCell>
        <mxCell id="0NZ42fV0YaBmnF-6rHme-24" value="" style="endArrow=classic;html=1;rounded=0;strokeWidth=3;" parent="1" source="0NZ42fV0YaBmnF-6rHme-9" target="0NZ42fV0YaBmnF-6rHme-20" edge="1">
          <mxGeometry width="50" height="50" relative="1" as="geometry">
            <mxPoint x="356" y="763" as="sourcePoint" />
            <mxPoint x="486" y="763.4200000000001" as="targetPoint" />
          </mxGeometry>
        </mxCell>
        <mxCell id="0NZ42fV0YaBmnF-6rHme-25" value="视觉" style="rounded=1;whiteSpace=wrap;html=1;fontSize=20;strokeWidth=3;points=[[0,0.5,0,0,0],[0.5,0,0,0,0],[0.5,1,0,0,0],[1,0.5,0,0,0]];" parent="1" vertex="1">
          <mxGeometry x="385" y="1215" width="150" height="60" as="geometry" />
        </mxCell>
        <mxCell id="0NZ42fV0YaBmnF-6rHme-26" value="听觉" style="rounded=1;whiteSpace=wrap;html=1;fontSize=20;strokeWidth=3;points=[[0,0.5,0,0,0],[0.5,0,0,0,0],[0.5,1,0,0,0],[1,0.5,0,0,0]];" parent="1" vertex="1">
          <mxGeometry x="1004" y="1213" width="150" height="60" as="geometry" />
        </mxCell>
        <mxCell id="0NZ42fV0YaBmnF-6rHme-27" value="" style="endArrow=classic;html=1;rounded=0;strokeWidth=3;exitX=0.664;exitY=0.033;exitDx=0;exitDy=0;exitPerimeter=0;" parent="1" source="0NZ42fV0YaBmnF-6rHme-25" target="0NZ42fV0YaBmnF-6rHme-20" edge="1">
          <mxGeometry width="50" height="50" relative="1" as="geometry">
            <mxPoint x="455" y="776" as="sourcePoint" />
            <mxPoint x="585" y="776.4200000000001" as="targetPoint" />
          </mxGeometry>
        </mxCell>
        <mxCell id="0NZ42fV0YaBmnF-6rHme-28" value="" style="endArrow=classic;html=1;rounded=0;strokeWidth=3;" parent="1" source="0NZ42fV0YaBmnF-6rHme-26" target="0NZ42fV0YaBmnF-6rHme-20" edge="1">
          <mxGeometry width="50" height="50" relative="1" as="geometry">
            <mxPoint x="757" y="765" as="sourcePoint" />
            <mxPoint x="887" y="765.4200000000001" as="targetPoint" />
          </mxGeometry>
        </mxCell>
        <mxCell id="0NZ42fV0YaBmnF-6rHme-34" value="摄像机" style="rounded=1;whiteSpace=wrap;html=1;fontSize=20;strokeWidth=3;points=[[0,0.5,0,0,0],[0.5,0,0,0,0],[0.5,1,0,0,0],[1,0.5,0,0,0]];" parent="1" vertex="1">
          <mxGeometry x="-125" y="1575" width="150" height="60" as="geometry" />
        </mxCell>
        <mxCell id="0NZ42fV0YaBmnF-6rHme-36" value="摄像机属性: 焦点" style="rounded=1;whiteSpace=wrap;html=1;fontSize=20;strokeWidth=3;points=[[0,0.5,0,0,0],[0.5,0,0,0,0],[0.5,1,0,0,0],[1,0.5,0,0,0]];" parent="1" vertex="1">
          <mxGeometry x="-343" y="1729" width="230" height="60" as="geometry" />
        </mxCell>
        <mxCell id="0NZ42fV0YaBmnF-6rHme-37" value="构图: 摄像机的位移与旋转" style="rounded=1;whiteSpace=wrap;html=1;fontSize=20;strokeWidth=3;points=[[0,0.5,0,0,0],[0.5,0,0,0,0],[0.5,1,0,0,0],[1,0.5,0,0,0]];" parent="1" vertex="1">
          <mxGeometry x="-34" y="1729" width="251" height="60" as="geometry" />
        </mxCell>
        <mxCell id="0NZ42fV0YaBmnF-6rHme-38" value="" style="endArrow=classic;html=1;rounded=0;strokeWidth=3;" parent="1" source="0NZ42fV0YaBmnF-6rHme-36" target="0NZ42fV0YaBmnF-6rHme-34" edge="1">
          <mxGeometry width="50" height="50" relative="1" as="geometry">
            <mxPoint x="-569" y="1940" as="sourcePoint" />
            <mxPoint x="-439" y="1940.42" as="targetPoint" />
          </mxGeometry>
        </mxCell>
        <mxCell id="0NZ42fV0YaBmnF-6rHme-39" value="" style="endArrow=classic;html=1;rounded=0;strokeWidth=3;" parent="1" source="0NZ42fV0YaBmnF-6rHme-37" target="0NZ42fV0YaBmnF-6rHme-34" edge="1">
          <mxGeometry width="50" height="50" relative="1" as="geometry">
            <mxPoint x="117" y="2007" as="sourcePoint" />
            <mxPoint x="247" y="2007.42" as="targetPoint" />
          </mxGeometry>
        </mxCell>
        <mxCell id="0NZ42fV0YaBmnF-6rHme-40" value="预演(PreVis)" style="rounded=1;whiteSpace=wrap;html=1;fontSize=20;strokeWidth=3;points=[[0,0.5,0,0,0],[0.5,0,0,0,0],[0.5,1,0,0,0],[1,0.5,0,0,0]];" parent="1" vertex="1">
          <mxGeometry x="1228" y="1024" width="150" height="60" as="geometry" />
        </mxCell>
        <mxCell id="0NZ42fV0YaBmnF-6rHme-41" value="" style="endArrow=classic;html=1;rounded=0;strokeWidth=3;exitX=1;exitY=0.5;exitDx=0;exitDy=0;exitPerimeter=0;" parent="1" source="0NZ42fV0YaBmnF-6rHme-20" target="0NZ42fV0YaBmnF-6rHme-40" edge="1">
          <mxGeometry width="50" height="50" relative="1" as="geometry">
            <mxPoint x="688" y="814" as="sourcePoint" />
            <mxPoint x="818" y="814.4200000000001" as="targetPoint" />
          </mxGeometry>
        </mxCell>
        <mxCell id="0NZ42fV0YaBmnF-6rHme-43" value="环境" style="rounded=1;whiteSpace=wrap;html=1;fontSize=20;strokeWidth=3;points=[[0,0.5,0,0,0],[0.5,0,0,0,0],[0.5,1,0,0,0],[1,0.5,0,0,0]];" parent="1" vertex="1">
          <mxGeometry x="374" y="1564" width="150" height="60" as="geometry" />
        </mxCell>
        <mxCell id="0NZ42fV0YaBmnF-6rHme-47" value="构图分镜" style="rounded=1;whiteSpace=wrap;html=1;fontSize=20;strokeWidth=3;points=[[0,0.5,0,0,0],[0.5,0,0,0,0],[0.5,1,0,0,0],[1,0.5,0,0,0]];" parent="1" vertex="1">
          <mxGeometry x="277" y="1372" width="150" height="60" as="geometry" />
        </mxCell>
        <mxCell id="0NZ42fV0YaBmnF-6rHme-48" value="" style="endArrow=classic;html=1;rounded=0;strokeWidth=3;" parent="1" source="0NZ42fV0YaBmnF-6rHme-34" target="0NZ42fV0YaBmnF-6rHme-47" edge="1">
          <mxGeometry width="50" height="50" relative="1" as="geometry">
            <mxPoint x="-92" y="751" as="sourcePoint" />
            <mxPoint x="38" y="751.4200000000001" as="targetPoint" />
          </mxGeometry>
        </mxCell>
        <mxCell id="0NZ42fV0YaBmnF-6rHme-49" value="" style="endArrow=classic;html=1;rounded=0;strokeWidth=3;" parent="1" source="0NZ42fV0YaBmnF-6rHme-47" target="0NZ42fV0YaBmnF-6rHme-25" edge="1">
          <mxGeometry width="50" height="50" relative="1" as="geometry">
            <mxPoint x="-92" y="751" as="sourcePoint" />
            <mxPoint x="38" y="751.4200000000001" as="targetPoint" />
          </mxGeometry>
        </mxCell>
        <mxCell id="0NZ42fV0YaBmnF-6rHme-50" value="主体的运动" style="rounded=1;whiteSpace=wrap;html=1;fontSize=20;strokeWidth=3;points=[[0,0.5,0,0,0],[0.5,0,0,0,0],[0.5,1,0,0,0],[1,0.5,0,0,0]];" parent="1" vertex="1">
          <mxGeometry x="146" y="1573" width="150" height="60" as="geometry" />
        </mxCell>
        <mxCell id="0NZ42fV0YaBmnF-6rHme-52" value="" style="endArrow=classic;html=1;rounded=0;strokeWidth=3;" parent="1" source="0NZ42fV0YaBmnF-6rHme-50" target="0NZ42fV0YaBmnF-6rHme-47" edge="1">
          <mxGeometry width="50" height="50" relative="1" as="geometry">
            <mxPoint x="531" y="1789" as="sourcePoint" />
            <mxPoint x="661" y="1789.42" as="targetPoint" />
          </mxGeometry>
        </mxCell>
        <mxCell id="0NZ42fV0YaBmnF-6rHme-53" value="" style="endArrow=classic;html=1;rounded=0;strokeWidth=3;" parent="1" source="0NZ42fV0YaBmnF-6rHme-43" target="0NZ42fV0YaBmnF-6rHme-47" edge="1">
          <mxGeometry width="50" height="50" relative="1" as="geometry">
            <mxPoint x="570" y="1723" as="sourcePoint" />
            <mxPoint x="700" y="1723.42" as="targetPoint" />
          </mxGeometry>
        </mxCell>
        <mxCell id="0NZ42fV0YaBmnF-6rHme-55" value="人声" style="rounded=1;whiteSpace=wrap;html=1;fontSize=20;strokeWidth=3;points=[[0,0.5,0,0,0],[0.5,0,0,0,0],[0.5,1,0,0,0],[1,0.5,0,0,0]];" parent="1" vertex="1">
          <mxGeometry x="603" y="1432" width="150" height="60" as="geometry" />
        </mxCell>
        <mxCell id="0NZ42fV0YaBmnF-6rHme-56" value="乐声" style="rounded=1;whiteSpace=wrap;html=1;fontSize=20;strokeWidth=3;points=[[0,0.5,0,0,0],[0.5,0,0,0,0],[0.5,1,0,0,0],[1,0.5,0,0,0]];" parent="1" vertex="1">
          <mxGeometry x="804" y="1432" width="150" height="60" as="geometry" />
        </mxCell>
        <mxCell id="0NZ42fV0YaBmnF-6rHme-57" value="歌声" style="rounded=1;whiteSpace=wrap;html=1;fontSize=20;strokeWidth=3;points=[[0,0.5,0,0,0],[0.5,0,0,0,0],[0.5,1,0,0,0],[1,0.5,0,0,0]];" parent="1" vertex="1">
          <mxGeometry x="1005" y="1432" width="150" height="60" as="geometry" />
        </mxCell>
        <mxCell id="0NZ42fV0YaBmnF-6rHme-58" value="环境声" style="rounded=1;whiteSpace=wrap;html=1;fontSize=20;strokeWidth=3;points=[[0,0.5,0,0,0],[0.5,0,0,0,0],[0.5,1,0,0,0],[1,0.5,0,0,0]];" parent="1" vertex="1">
          <mxGeometry x="1205" y="1432" width="150" height="60" as="geometry" />
        </mxCell>
        <mxCell id="0NZ42fV0YaBmnF-6rHme-59" value="音效" style="rounded=1;whiteSpace=wrap;html=1;fontSize=20;strokeWidth=3;points=[[0,0.5,0,0,0],[0.5,0,0,0,0],[0.5,1,0,0,0],[1,0.5,0,0,0]];" parent="1" vertex="1">
          <mxGeometry x="1406" y="1432" width="150" height="60" as="geometry" />
        </mxCell>
        <mxCell id="0NZ42fV0YaBmnF-6rHme-60" value="" style="endArrow=classic;html=1;rounded=0;strokeWidth=3;" parent="1" source="0NZ42fV0YaBmnF-6rHme-55" target="0NZ42fV0YaBmnF-6rHme-26" edge="1">
          <mxGeometry width="50" height="50" relative="1" as="geometry">
            <mxPoint x="735" y="944" as="sourcePoint" />
            <mxPoint x="865" y="944.4200000000001" as="targetPoint" />
          </mxGeometry>
        </mxCell>
        <mxCell id="0NZ42fV0YaBmnF-6rHme-61" value="" style="endArrow=classic;html=1;rounded=0;strokeWidth=3;" parent="1" source="0NZ42fV0YaBmnF-6rHme-56" target="0NZ42fV0YaBmnF-6rHme-26" edge="1">
          <mxGeometry width="50" height="50" relative="1" as="geometry">
            <mxPoint x="978" y="864" as="sourcePoint" />
            <mxPoint x="1108" y="864.4200000000001" as="targetPoint" />
          </mxGeometry>
        </mxCell>
        <mxCell id="0NZ42fV0YaBmnF-6rHme-62" value="" style="endArrow=classic;html=1;rounded=0;strokeWidth=3;" parent="1" source="0NZ42fV0YaBmnF-6rHme-57" target="0NZ42fV0YaBmnF-6rHme-26" edge="1">
          <mxGeometry width="50" height="50" relative="1" as="geometry">
            <mxPoint x="1041" y="883" as="sourcePoint" />
            <mxPoint x="1171" y="883.4200000000001" as="targetPoint" />
          </mxGeometry>
        </mxCell>
        <mxCell id="0NZ42fV0YaBmnF-6rHme-63" value="" style="endArrow=classic;html=1;rounded=0;strokeWidth=3;" parent="1" source="0NZ42fV0YaBmnF-6rHme-58" target="0NZ42fV0YaBmnF-6rHme-26" edge="1">
          <mxGeometry width="50" height="50" relative="1" as="geometry">
            <mxPoint x="1284" y="872" as="sourcePoint" />
            <mxPoint x="1414" y="872.4200000000001" as="targetPoint" />
          </mxGeometry>
        </mxCell>
        <mxCell id="0NZ42fV0YaBmnF-6rHme-64" value="" style="endArrow=classic;html=1;rounded=0;strokeWidth=3;" parent="1" source="0NZ42fV0YaBmnF-6rHme-59" target="0NZ42fV0YaBmnF-6rHme-26" edge="1">
          <mxGeometry width="50" height="50" relative="1" as="geometry">
            <mxPoint x="1407" y="917" as="sourcePoint" />
            <mxPoint x="1537" y="917.4200000000001" as="targetPoint" />
          </mxGeometry>
        </mxCell>
        <mxCell id="mYMN0hBylBIN_7HUB8Af-1" value="制作筹备" style="rounded=1;whiteSpace=wrap;html=1;fontSize=20;strokeWidth=3;points=[[0,0.5,0,0,0],[0.5,0,0,0,0],[0.5,1,0,0,0],[1,0.5,0,0,0]];" parent="1" vertex="1">
          <mxGeometry x="646" y="2479" width="150" height="60" as="geometry" />
        </mxCell>
        <mxCell id="mYMN0hBylBIN_7HUB8Af-3" value="设计" style="rounded=1;whiteSpace=wrap;html=1;fontSize=20;strokeWidth=3;points=[[0,0.5,0,0,0],[0.5,0,0,0,0],[0.5,1,0,0,0],[1,0.5,0,0,0]];" parent="1" vertex="1">
          <mxGeometry x="-915" y="1036" width="150" height="60" as="geometry" />
        </mxCell>
        <mxCell id="mYMN0hBylBIN_7HUB8Af-4" value="现实制作" style="rounded=1;whiteSpace=wrap;html=1;fontSize=20;strokeWidth=3;points=[[0,0.5,0,0,0],[0.5,0,0,0,0],[0.5,1,0,0,0],[1,0.5,0,0,0]];" parent="1" vertex="1">
          <mxGeometry x="152" y="2932" width="150" height="60" as="geometry" />
        </mxCell>
        <mxCell id="mYMN0hBylBIN_7HUB8Af-5" value="" style="endArrow=classic;html=1;rounded=0;strokeWidth=3;" parent="1" source="mYMN0hBylBIN_7HUB8Af-3" target="0NZ42fV0YaBmnF-6rHme-5" edge="1">
          <mxGeometry width="50" height="50" relative="1" as="geometry">
            <mxPoint x="-1298" y="858" as="sourcePoint" />
            <mxPoint x="-1168" y="858.4200000000001" as="targetPoint" />
          </mxGeometry>
        </mxCell>
        <mxCell id="mYMN0hBylBIN_7HUB8Af-6" value="" style="endArrow=classic;html=1;rounded=0;strokeWidth=3;" parent="1" source="mYMN0hBylBIN_7HUB8Af-4" target="mYMN0hBylBIN_7HUB8Af-1" edge="1">
          <mxGeometry width="50" height="50" relative="1" as="geometry">
            <mxPoint x="492" y="2405" as="sourcePoint" />
            <mxPoint x="622" y="2405.42" as="targetPoint" />
          </mxGeometry>
        </mxCell>
        <mxCell id="mYMN0hBylBIN_7HUB8Af-7" value="拍摄" style="rounded=1;whiteSpace=wrap;html=1;fontSize=20;strokeWidth=3;points=[[0,0.5,0,0,0],[0.5,0,0,0,0],[0.5,1,0,0,0],[1,0.5,0,0,0]];" parent="1" vertex="1">
          <mxGeometry x="630" y="2702" width="150" height="60" as="geometry" />
        </mxCell>
        <mxCell id="mYMN0hBylBIN_7HUB8Af-8" value="制作收尾" style="rounded=1;whiteSpace=wrap;html=1;fontSize=20;strokeWidth=3;points=[[0,0.5,0,0,0],[0.5,0,0,0,0],[0.5,1,0,0,0],[1,0.5,0,0,0]];" parent="1" vertex="1">
          <mxGeometry x="621" y="2961" width="150" height="60" as="geometry" />
        </mxCell>
        <mxCell id="mYMN0hBylBIN_7HUB8Af-9" value="" style="endArrow=classic;html=1;rounded=0;strokeWidth=3;" parent="1" source="mYMN0hBylBIN_7HUB8Af-4" target="mYMN0hBylBIN_7HUB8Af-7" edge="1">
          <mxGeometry width="50" height="50" relative="1" as="geometry">
            <mxPoint x="-247" y="1995" as="sourcePoint" />
            <mxPoint x="-117" y="1995.42" as="targetPoint" />
          </mxGeometry>
        </mxCell>
        <mxCell id="mYMN0hBylBIN_7HUB8Af-10" value="" style="endArrow=classic;html=1;rounded=0;strokeWidth=3;" parent="1" source="mYMN0hBylBIN_7HUB8Af-4" target="mYMN0hBylBIN_7HUB8Af-8" edge="1">
          <mxGeometry width="50" height="50" relative="1" as="geometry">
            <mxPoint x="194" y="2660" as="sourcePoint" />
            <mxPoint x="324" y="2660.42" as="targetPoint" />
          </mxGeometry>
        </mxCell>
        <mxCell id="mYMN0hBylBIN_7HUB8Af-11" value="场景" style="rounded=1;whiteSpace=wrap;html=1;fontSize=20;strokeWidth=3;points=[[0,0.5,0,0,0],[0.5,0,0,0,0],[0.5,1,0,0,0],[1,0.5,0,0,0]];" parent="1" vertex="1">
          <mxGeometry x="997" y="2066" width="150" height="60" as="geometry" />
        </mxCell>
        <mxCell id="mYMN0hBylBIN_7HUB8Af-12" value="演员" style="rounded=1;whiteSpace=wrap;html=1;fontSize=20;strokeWidth=3;points=[[0,0.5,0,0,0],[0.5,0,0,0,0],[0.5,1,0,0,0],[1,0.5,0,0,0]];" parent="1" vertex="1">
          <mxGeometry x="1012" y="2433" width="150" height="60" as="geometry" />
        </mxCell>
        <mxCell id="mYMN0hBylBIN_7HUB8Af-13" value="器材" style="rounded=1;whiteSpace=wrap;html=1;fontSize=20;strokeWidth=3;points=[[0,0.5,0,0,0],[0.5,0,0,0,0],[0.5,1,0,0,0],[1,0.5,0,0,0]];" parent="1" vertex="1">
          <mxGeometry x="1029" y="2585" width="150" height="60" as="geometry" />
        </mxCell>
        <mxCell id="mYMN0hBylBIN_7HUB8Af-14" value="" style="endArrow=classic;html=1;rounded=0;strokeWidth=3;" parent="1" source="mYMN0hBylBIN_7HUB8Af-1" target="mYMN0hBylBIN_7HUB8Af-11" edge="1">
          <mxGeometry width="50" height="50" relative="1" as="geometry">
            <mxPoint x="581" y="2121" as="sourcePoint" />
            <mxPoint x="711" y="2121.42" as="targetPoint" />
          </mxGeometry>
        </mxCell>
        <mxCell id="mYMN0hBylBIN_7HUB8Af-15" value="" style="endArrow=classic;html=1;rounded=0;strokeWidth=3;" parent="1" source="mYMN0hBylBIN_7HUB8Af-1" target="mYMN0hBylBIN_7HUB8Af-12" edge="1">
          <mxGeometry width="50" height="50" relative="1" as="geometry">
            <mxPoint x="1235" y="2638" as="sourcePoint" />
            <mxPoint x="1365" y="2638.42" as="targetPoint" />
          </mxGeometry>
        </mxCell>
        <mxCell id="mYMN0hBylBIN_7HUB8Af-16" value="" style="endArrow=classic;html=1;rounded=0;strokeWidth=3;" parent="1" source="mYMN0hBylBIN_7HUB8Af-1" target="mYMN0hBylBIN_7HUB8Af-13" edge="1">
          <mxGeometry width="50" height="50" relative="1" as="geometry">
            <mxPoint x="1414" y="2496" as="sourcePoint" />
            <mxPoint x="1544" y="2496.42" as="targetPoint" />
          </mxGeometry>
        </mxCell>
        <mxCell id="mYMN0hBylBIN_7HUB8Af-17" value="拍摄日志" style="rounded=1;whiteSpace=wrap;html=1;fontSize=20;strokeWidth=3;points=[[0,0.5,0,0,0],[0.5,0,0,0,0],[0.5,1,0,0,0],[1,0.5,0,0,0]];" parent="1" vertex="1">
          <mxGeometry x="1228" y="3120" width="150" height="60" as="geometry" />
        </mxCell>
        <mxCell id="mYMN0hBylBIN_7HUB8Af-18" value="DIT" style="rounded=1;whiteSpace=wrap;html=1;fontSize=20;strokeWidth=3;points=[[0,0.5,0,0,0],[0.5,0,0,0,0],[0.5,1,0,0,0],[1,0.5,0,0,0]];" parent="1" vertex="1">
          <mxGeometry x="944" y="3109" width="150" height="60" as="geometry" />
        </mxCell>
        <mxCell id="mYMN0hBylBIN_7HUB8Af-19" value="" style="endArrow=classic;html=1;rounded=0;strokeWidth=3;" parent="1" source="mYMN0hBylBIN_7HUB8Af-8" target="mYMN0hBylBIN_7HUB8Af-18" edge="1">
          <mxGeometry width="50" height="50" relative="1" as="geometry">
            <mxPoint x="567" y="3199" as="sourcePoint" />
            <mxPoint x="697" y="3199.42" as="targetPoint" />
          </mxGeometry>
        </mxCell>
        <mxCell id="mYMN0hBylBIN_7HUB8Af-33" value="人物建模" style="rounded=1;whiteSpace=wrap;html=1;fontSize=20;strokeWidth=3;points=[[0,0.5,0,0,0],[0.5,0,0,0,0],[0.5,1,0,0,0],[1,0.5,0,0,0]];" parent="1" vertex="1">
          <mxGeometry x="677" y="3149" width="150" height="60" as="geometry" />
        </mxCell>
        <mxCell id="mYMN0hBylBIN_7HUB8Af-34" value="环境建模" style="rounded=1;whiteSpace=wrap;html=1;fontSize=20;strokeWidth=3;points=[[0,0.5,0,0,0],[0.5,0,0,0,0],[0.5,1,0,0,0],[1,0.5,0,0,0]];" parent="1" vertex="1">
          <mxGeometry x="668" y="3504" width="150" height="60" as="geometry" />
        </mxCell>
        <mxCell id="mYMN0hBylBIN_7HUB8Af-35" value="动作捕捉" style="rounded=1;whiteSpace=wrap;html=1;fontSize=20;strokeWidth=3;points=[[0,0.5,0,0,0],[0.5,0,0,0,0],[0.5,1,0,0,0],[1,0.5,0,0,0]];" parent="1" vertex="1">
          <mxGeometry x="682" y="3229" width="150" height="60" as="geometry" />
        </mxCell>
        <mxCell id="mYMN0hBylBIN_7HUB8Af-36" value="道具" style="rounded=1;whiteSpace=wrap;html=1;fontSize=20;strokeWidth=3;points=[[0,0.5,0,0,0],[0.5,0,0,0,0],[0.5,1,0,0,0],[1,0.5,0,0,0]];" parent="1" vertex="1">
          <mxGeometry x="1019" y="2260" width="150" height="60" as="geometry" />
        </mxCell>
        <mxCell id="mYMN0hBylBIN_7HUB8Af-37" value="" style="endArrow=classic;html=1;rounded=0;strokeWidth=3;" parent="1" source="mYMN0hBylBIN_7HUB8Af-1" target="mYMN0hBylBIN_7HUB8Af-36" edge="1">
          <mxGeometry width="50" height="50" relative="1" as="geometry">
            <mxPoint x="613" y="2131" as="sourcePoint" />
            <mxPoint x="743" y="2131.42" as="targetPoint" />
          </mxGeometry>
        </mxCell>
        <mxCell id="mYMN0hBylBIN_7HUB8Af-38" value="服装" style="rounded=1;whiteSpace=wrap;html=1;fontSize=20;strokeWidth=3;points=[[0,0.5,0,0,0],[0.5,0,0,0,0],[0.5,1,0,0,0],[1,0.5,0,0,0]];" parent="1" vertex="1">
          <mxGeometry x="1299" y="2350" width="150" height="60" as="geometry" />
        </mxCell>
        <mxCell id="mYMN0hBylBIN_7HUB8Af-39" value="" style="endArrow=classic;html=1;rounded=0;strokeWidth=3;" parent="1" source="mYMN0hBylBIN_7HUB8Af-12" target="mYMN0hBylBIN_7HUB8Af-38" edge="1">
          <mxGeometry width="50" height="50" relative="1" as="geometry">
            <mxPoint x="1305" y="2548" as="sourcePoint" />
            <mxPoint x="1435" y="2548.42" as="targetPoint" />
          </mxGeometry>
        </mxCell>
        <mxCell id="mYMN0hBylBIN_7HUB8Af-40" value="化妆" style="rounded=1;whiteSpace=wrap;html=1;fontSize=20;strokeWidth=3;points=[[0,0.5,0,0,0],[0.5,0,0,0,0],[0.5,1,0,0,0],[1,0.5,0,0,0]];" parent="1" vertex="1">
          <mxGeometry x="1296" y="2463" width="150" height="60" as="geometry" />
        </mxCell>
        <mxCell id="mYMN0hBylBIN_7HUB8Af-41" value="" style="endArrow=classic;html=1;rounded=0;strokeWidth=3;" parent="1" source="mYMN0hBylBIN_7HUB8Af-12" target="mYMN0hBylBIN_7HUB8Af-40" edge="1">
          <mxGeometry width="50" height="50" relative="1" as="geometry">
            <mxPoint x="1347" y="2171" as="sourcePoint" />
            <mxPoint x="1477" y="2171.42" as="targetPoint" />
          </mxGeometry>
        </mxCell>
        <mxCell id="mYMN0hBylBIN_7HUB8Af-42" value="摄影" style="rounded=1;whiteSpace=wrap;html=1;fontSize=20;strokeWidth=3;points=[[0,0.5,0,0,0],[0.5,0,0,0,0],[0.5,1,0,0,0],[1,0.5,0,0,0]];" parent="1" vertex="1">
          <mxGeometry x="1280" y="2560" width="150" height="60" as="geometry" />
        </mxCell>
        <mxCell id="mYMN0hBylBIN_7HUB8Af-43" value="录音" style="rounded=1;whiteSpace=wrap;html=1;fontSize=20;strokeWidth=3;points=[[0,0.5,0,0,0],[0.5,0,0,0,0],[0.5,1,0,0,0],[1,0.5,0,0,0]];" parent="1" vertex="1">
          <mxGeometry x="1270" y="2670" width="150" height="60" as="geometry" />
        </mxCell>
        <mxCell id="mYMN0hBylBIN_7HUB8Af-44" value="光照" style="rounded=1;whiteSpace=wrap;html=1;fontSize=20;strokeWidth=3;points=[[0,0.5,0,0,0],[0.5,0,0,0,0],[0.5,1,0,0,0],[1,0.5,0,0,0]];" parent="1" vertex="1">
          <mxGeometry x="1265" y="2782" width="150" height="60" as="geometry" />
        </mxCell>
        <mxCell id="mYMN0hBylBIN_7HUB8Af-45" value="" style="endArrow=classic;html=1;rounded=0;strokeWidth=3;" parent="1" source="mYMN0hBylBIN_7HUB8Af-13" target="mYMN0hBylBIN_7HUB8Af-42" edge="1">
          <mxGeometry width="50" height="50" relative="1" as="geometry">
            <mxPoint x="782" y="2131" as="sourcePoint" />
            <mxPoint x="912" y="2131.42" as="targetPoint" />
          </mxGeometry>
        </mxCell>
        <mxCell id="mYMN0hBylBIN_7HUB8Af-46" value="" style="endArrow=classic;html=1;rounded=0;strokeWidth=3;" parent="1" source="mYMN0hBylBIN_7HUB8Af-13" target="mYMN0hBylBIN_7HUB8Af-43" edge="1">
          <mxGeometry width="50" height="50" relative="1" as="geometry">
            <mxPoint x="1035" y="2806" as="sourcePoint" />
            <mxPoint x="1165" y="2806.42" as="targetPoint" />
          </mxGeometry>
        </mxCell>
        <mxCell id="mYMN0hBylBIN_7HUB8Af-47" value="" style="endArrow=classic;html=1;rounded=0;strokeWidth=3;" parent="1" source="mYMN0hBylBIN_7HUB8Af-13" target="mYMN0hBylBIN_7HUB8Af-44" edge="1">
          <mxGeometry width="50" height="50" relative="1" as="geometry">
            <mxPoint x="1165" y="2771" as="sourcePoint" />
            <mxPoint x="1295" y="2771.42" as="targetPoint" />
          </mxGeometry>
        </mxCell>
        <mxCell id="mYMN0hBylBIN_7HUB8Af-48" value="" style="endArrow=classic;html=1;rounded=0;strokeWidth=3;" parent="1" source="mYMN0hBylBIN_7HUB8Af-18" target="mYMN0hBylBIN_7HUB8Af-17" edge="1">
          <mxGeometry width="50" height="50" relative="1" as="geometry">
            <mxPoint x="1149" y="2901" as="sourcePoint" />
            <mxPoint x="1279" y="2901.42" as="targetPoint" />
          </mxGeometry>
        </mxCell>
        <mxCell id="mYMN0hBylBIN_7HUB8Af-49" value="人员" style="rounded=1;whiteSpace=wrap;html=1;fontSize=20;strokeWidth=3;points=[[0,0.5,0,0,0],[0.5,0,0,0,0],[0.5,1,0,0,0],[1,0.5,0,0,0]];" parent="1" vertex="1">
          <mxGeometry x="979" y="2880" width="150" height="60" as="geometry" />
        </mxCell>
        <mxCell id="mYMN0hBylBIN_7HUB8Af-50" value="" style="endArrow=classic;html=1;rounded=0;strokeWidth=3;" parent="1" source="mYMN0hBylBIN_7HUB8Af-8" target="mYMN0hBylBIN_7HUB8Af-49" edge="1">
          <mxGeometry width="50" height="50" relative="1" as="geometry">
            <mxPoint x="732" y="3238" as="sourcePoint" />
            <mxPoint x="862" y="3238.42" as="targetPoint" />
          </mxGeometry>
        </mxCell>
        <mxCell id="mYMN0hBylBIN_7HUB8Af-51" value="环境" style="rounded=1;whiteSpace=wrap;html=1;fontSize=20;strokeWidth=3;points=[[0,0.5,0,0,0],[0.5,0,0,0,0],[0.5,1,0,0,0],[1,0.5,0,0,0]];" parent="1" vertex="1">
          <mxGeometry x="944" y="3002" width="150" height="60" as="geometry" />
        </mxCell>
        <mxCell id="mYMN0hBylBIN_7HUB8Af-52" value="" style="endArrow=classic;html=1;rounded=0;strokeWidth=3;" parent="1" source="mYMN0hBylBIN_7HUB8Af-8" target="mYMN0hBylBIN_7HUB8Af-51" edge="1">
          <mxGeometry width="50" height="50" relative="1" as="geometry">
            <mxPoint x="745" y="3199" as="sourcePoint" />
            <mxPoint x="875" y="3199.42" as="targetPoint" />
          </mxGeometry>
        </mxCell>
        <mxCell id="mYMN0hBylBIN_7HUB8Af-53" value="摄影数据" style="rounded=1;whiteSpace=wrap;html=1;fontSize=20;strokeWidth=3;points=[[0,0.5,0,0,0],[0.5,0,0,0,0],[0.5,1,0,0,0],[1,0.5,0,0,0]];" parent="1" vertex="1">
          <mxGeometry x="1232" y="3256" width="150" height="60" as="geometry" />
        </mxCell>
        <mxCell id="mYMN0hBylBIN_7HUB8Af-54" value="" style="endArrow=classic;html=1;rounded=0;strokeWidth=3;" parent="1" source="mYMN0hBylBIN_7HUB8Af-18" target="mYMN0hBylBIN_7HUB8Af-53" edge="1">
          <mxGeometry width="50" height="50" relative="1" as="geometry">
            <mxPoint x="978" y="3290" as="sourcePoint" />
            <mxPoint x="1108" y="3290.42" as="targetPoint" />
          </mxGeometry>
        </mxCell>
        <mxCell id="mYMN0hBylBIN_7HUB8Af-55" value="" style="endArrow=classic;html=1;rounded=0;strokeWidth=3;" parent="1" source="mYMN0hBylBIN_7HUB8Af-92" target="mYMN0hBylBIN_7HUB8Af-33" edge="1">
          <mxGeometry width="50" height="50" relative="1" as="geometry">
            <mxPoint x="440" y="3108.195652173913" as="sourcePoint" />
            <mxPoint x="668" y="3440.42" as="targetPoint" />
          </mxGeometry>
        </mxCell>
        <mxCell id="mYMN0hBylBIN_7HUB8Af-56" value="" style="endArrow=classic;html=1;rounded=0;strokeWidth=3;" parent="1" source="mYMN0hBylBIN_7HUB8Af-92" target="mYMN0hBylBIN_7HUB8Af-34" edge="1">
          <mxGeometry width="50" height="50" relative="1" as="geometry">
            <mxPoint x="440" y="3134.282608695652" as="sourcePoint" />
            <mxPoint x="722" y="3380.42" as="targetPoint" />
          </mxGeometry>
        </mxCell>
        <mxCell id="mYMN0hBylBIN_7HUB8Af-57" value="" style="endArrow=classic;html=1;rounded=0;strokeWidth=3;" parent="1" source="mYMN0hBylBIN_7HUB8Af-92" target="mYMN0hBylBIN_7HUB8Af-35" edge="1">
          <mxGeometry width="50" height="50" relative="1" as="geometry">
            <mxPoint x="421.2650602409635" y="3147" as="sourcePoint" />
            <mxPoint x="628" y="3451.42" as="targetPoint" />
          </mxGeometry>
        </mxCell>
        <mxCell id="mYMN0hBylBIN_7HUB8Af-59" value="制作" style="rounded=1;whiteSpace=wrap;html=1;fontSize=20;strokeWidth=3;points=[[0,0.5,0,0,0],[0.5,0,0,0,0],[0.5,1,0,0,0],[1,0.5,0,0,0]];" parent="1" vertex="1">
          <mxGeometry x="-1079" y="3035" width="150" height="60" as="geometry" />
        </mxCell>
        <mxCell id="mYMN0hBylBIN_7HUB8Af-61" value="" style="endArrow=classic;html=1;rounded=0;strokeWidth=3;" parent="1" source="mYMN0hBylBIN_7HUB8Af-73" target="mYMN0hBylBIN_7HUB8Af-63" edge="1">
          <mxGeometry width="50" height="50" relative="1" as="geometry">
            <mxPoint x="-50" y="3427" as="sourcePoint" />
            <mxPoint x="-113.99999999999955" y="3553.3097345132746" as="targetPoint" />
          </mxGeometry>
        </mxCell>
        <mxCell id="mYMN0hBylBIN_7HUB8Af-62" value="宣发" style="rounded=1;whiteSpace=wrap;html=1;fontSize=20;strokeWidth=3;points=[[0,0.5,0,0,0],[0.5,0,0,0,0],[0.5,1,0,0,0],[1,0.5,0,0,0]];" parent="1" vertex="1">
          <mxGeometry x="-1065" y="4522" width="150" height="60" as="geometry" />
        </mxCell>
        <mxCell id="mYMN0hBylBIN_7HUB8Af-63" value="虚拟制作" style="rounded=1;whiteSpace=wrap;html=1;fontSize=20;strokeWidth=3;points=[[0,0.5,0,0,0],[0.5,0,0,0,0],[0.5,1,0,0,0],[1,0.5,0,0,0]];" parent="1" vertex="1">
          <mxGeometry x="30" y="3532" width="150" height="60" as="geometry" />
        </mxCell>
        <mxCell id="mYMN0hBylBIN_7HUB8Af-67" value="" style="endArrow=classic;html=1;rounded=0;strokeWidth=3;" parent="1" source="mYMN0hBylBIN_7HUB8Af-73" target="mYMN0hBylBIN_7HUB8Af-4" edge="1">
          <mxGeometry width="50" height="50" relative="1" as="geometry">
            <mxPoint x="735" y="2641" as="sourcePoint" />
            <mxPoint x="-77.19480519480521" y="2832" as="targetPoint" />
          </mxGeometry>
        </mxCell>
        <mxCell id="mYMN0hBylBIN_7HUB8Af-71" value="特效" style="rounded=1;whiteSpace=wrap;html=1;fontSize=20;strokeWidth=3;points=[[0,0.5,0,0,0],[0.5,0,0,0,0],[0.5,1,0,0,0],[1,0.5,0,0,0]];" parent="1" vertex="1">
          <mxGeometry x="691" y="3348" width="150" height="60" as="geometry" />
        </mxCell>
        <mxCell id="mYMN0hBylBIN_7HUB8Af-72" value="" style="endArrow=classic;html=1;rounded=0;strokeWidth=3;" parent="1" source="mYMN0hBylBIN_7HUB8Af-92" target="mYMN0hBylBIN_7HUB8Af-71" edge="1">
          <mxGeometry width="50" height="50" relative="1" as="geometry">
            <mxPoint x="23" y="3256" as="sourcePoint" />
            <mxPoint x="153" y="3256.42" as="targetPoint" />
          </mxGeometry>
        </mxCell>
        <mxCell id="mYMN0hBylBIN_7HUB8Af-73" value="资产" style="rounded=1;whiteSpace=wrap;html=1;fontSize=20;strokeWidth=3;points=[[0,0.5,0,0,0],[0.5,0,0,0,0],[0.5,1,0,0,0],[1,0.5,0,0,0]];" parent="1" vertex="1">
          <mxGeometry x="-411" y="3176" width="150" height="60" as="geometry" />
        </mxCell>
        <mxCell id="mYMN0hBylBIN_7HUB8Af-74" value="综合" style="rounded=1;whiteSpace=wrap;html=1;fontSize=20;strokeWidth=3;points=[[0,0.5,0,0,0],[0.5,0,0,0,0],[0.5,1,0,0,0],[1,0.5,0,0,0]];" parent="1" vertex="1">
          <mxGeometry x="-402" y="3969" width="150" height="60" as="geometry" />
        </mxCell>
        <mxCell id="mYMN0hBylBIN_7HUB8Af-75" value="" style="endArrow=classic;html=1;rounded=0;strokeWidth=3;" parent="1" source="mYMN0hBylBIN_7HUB8Af-59" target="mYMN0hBylBIN_7HUB8Af-73" edge="1">
          <mxGeometry width="50" height="50" relative="1" as="geometry">
            <mxPoint x="-924" y="2844" as="sourcePoint" />
            <mxPoint x="-794" y="2844.42" as="targetPoint" />
          </mxGeometry>
        </mxCell>
        <mxCell id="mYMN0hBylBIN_7HUB8Af-76" value="" style="endArrow=classic;html=1;rounded=0;strokeWidth=3;" parent="1" source="mYMN0hBylBIN_7HUB8Af-59" target="mYMN0hBylBIN_7HUB8Af-74" edge="1">
          <mxGeometry width="50" height="50" relative="1" as="geometry">
            <mxPoint x="-770" y="3227" as="sourcePoint" />
            <mxPoint x="-640" y="3227.42" as="targetPoint" />
          </mxGeometry>
        </mxCell>
        <mxCell id="mYMN0hBylBIN_7HUB8Af-78" value="" style="endArrow=classic;html=1;rounded=0;strokeWidth=3;" parent="1" source="mYMN0hBylBIN_7HUB8Af-74" target="mYMN0hBylBIN_7HUB8Af-79" edge="1">
          <mxGeometry width="50" height="50" relative="1" as="geometry">
            <mxPoint x="-367" y="4035" as="sourcePoint" />
            <mxPoint x="277" y="3733.42" as="targetPoint" />
          </mxGeometry>
        </mxCell>
        <mxCell id="mYMN0hBylBIN_7HUB8Af-79" value="视觉" style="rounded=1;whiteSpace=wrap;html=1;fontSize=20;strokeWidth=3;points=[[0,0.5,0,0,0],[0.5,0,0,0,0],[0.5,1,0,0,0],[1,0.5,0,0,0]];" parent="1" vertex="1">
          <mxGeometry x="1" y="3915" width="150" height="60" as="geometry" />
        </mxCell>
        <mxCell id="mYMN0hBylBIN_7HUB8Af-80" value="听觉" style="rounded=1;whiteSpace=wrap;html=1;fontSize=20;strokeWidth=3;points=[[0,0.5,0,0,0],[0.5,0,0,0,0],[0.5,1,0,0,0],[1,0.5,0,0,0]];" parent="1" vertex="1">
          <mxGeometry x="45" y="4148" width="150" height="60" as="geometry" />
        </mxCell>
        <mxCell id="mYMN0hBylBIN_7HUB8Af-81" value="" style="endArrow=classic;html=1;rounded=0;strokeWidth=3;" parent="1" source="mYMN0hBylBIN_7HUB8Af-74" target="mYMN0hBylBIN_7HUB8Af-80" edge="1">
          <mxGeometry width="50" height="50" relative="1" as="geometry">
            <mxPoint x="379" y="3908" as="sourcePoint" />
            <mxPoint x="509" y="3908.42" as="targetPoint" />
          </mxGeometry>
        </mxCell>
        <mxCell id="mYMN0hBylBIN_7HUB8Af-82" value="剪辑" style="rounded=1;whiteSpace=wrap;html=1;fontSize=20;strokeWidth=3;points=[[0,0.5,0,0,0],[0.5,0,0,0,0],[0.5,1,0,0,0],[1,0.5,0,0,0]];" parent="1" vertex="1">
          <mxGeometry x="327" y="3837" width="150" height="60" as="geometry" />
        </mxCell>
        <mxCell id="mYMN0hBylBIN_7HUB8Af-83" value="合成" style="rounded=1;whiteSpace=wrap;html=1;fontSize=20;strokeWidth=3;points=[[0,0.5,0,0,0],[0.5,0,0,0,0],[0.5,1,0,0,0],[1,0.5,0,0,0]];" parent="1" vertex="1">
          <mxGeometry x="335" y="3979" width="150" height="60" as="geometry" />
        </mxCell>
        <mxCell id="mYMN0hBylBIN_7HUB8Af-84" value="" style="endArrow=classic;html=1;rounded=0;strokeWidth=3;" parent="1" source="mYMN0hBylBIN_7HUB8Af-79" target="mYMN0hBylBIN_7HUB8Af-82" edge="1">
          <mxGeometry width="50" height="50" relative="1" as="geometry">
            <mxPoint x="248" y="3528" as="sourcePoint" />
            <mxPoint x="378" y="3528.42" as="targetPoint" />
          </mxGeometry>
        </mxCell>
        <mxCell id="mYMN0hBylBIN_7HUB8Af-85" value="" style="endArrow=classic;html=1;rounded=0;strokeWidth=3;" parent="1" source="mYMN0hBylBIN_7HUB8Af-79" target="mYMN0hBylBIN_7HUB8Af-83" edge="1">
          <mxGeometry width="50" height="50" relative="1" as="geometry">
            <mxPoint x="245" y="4045" as="sourcePoint" />
            <mxPoint x="375" y="4045.42" as="targetPoint" />
          </mxGeometry>
        </mxCell>
        <mxCell id="mYMN0hBylBIN_7HUB8Af-86" value="混音" style="rounded=1;whiteSpace=wrap;html=1;fontSize=20;strokeWidth=3;points=[[0,0.5,0,0,0],[0.5,0,0,0,0],[0.5,1,0,0,0],[1,0.5,0,0,0]];" parent="1" vertex="1">
          <mxGeometry x="329" y="4148" width="150" height="60" as="geometry" />
        </mxCell>
        <mxCell id="mYMN0hBylBIN_7HUB8Af-87" value="" style="endArrow=classic;html=1;rounded=0;strokeWidth=3;" parent="1" source="mYMN0hBylBIN_7HUB8Af-80" target="mYMN0hBylBIN_7HUB8Af-86" edge="1">
          <mxGeometry width="50" height="50" relative="1" as="geometry">
            <mxPoint x="72" y="4375" as="sourcePoint" />
            <mxPoint x="202" y="4375.42" as="targetPoint" />
          </mxGeometry>
        </mxCell>
        <mxCell id="mYMN0hBylBIN_7HUB8Af-88" value="" style="endArrow=classic;html=1;rounded=0;strokeWidth=3;" parent="1" source="mYMN0hBylBIN_7HUB8Af-3" target="mYMN0hBylBIN_7HUB8Af-59" edge="1">
          <mxGeometry width="50" height="50" relative="1" as="geometry">
            <mxPoint x="-153" y="612" as="sourcePoint" />
            <mxPoint x="-23" y="612.4200000000001" as="targetPoint" />
          </mxGeometry>
        </mxCell>
        <mxCell id="mYMN0hBylBIN_7HUB8Af-89" value="" style="endArrow=classic;html=1;rounded=0;strokeWidth=3;" parent="1" source="mYMN0hBylBIN_7HUB8Af-59" target="mYMN0hBylBIN_7HUB8Af-62" edge="1">
          <mxGeometry width="50" height="50" relative="1" as="geometry">
            <mxPoint x="-1304" y="3871" as="sourcePoint" />
            <mxPoint x="-1174" y="3871.42" as="targetPoint" />
          </mxGeometry>
        </mxCell>
        <mxCell id="mYMN0hBylBIN_7HUB8Af-90" value="录音" style="rounded=1;whiteSpace=wrap;html=1;fontSize=20;strokeWidth=3;points=[[0,0.5,0,0,0],[0.5,0,0,0,0],[0.5,1,0,0,0],[1,0.5,0,0,0]];" parent="1" vertex="1">
          <mxGeometry x="646" y="2823" width="150" height="60" as="geometry" />
        </mxCell>
        <mxCell id="mYMN0hBylBIN_7HUB8Af-91" value="" style="endArrow=classic;html=1;rounded=0;strokeWidth=3;" parent="1" source="mYMN0hBylBIN_7HUB8Af-4" target="mYMN0hBylBIN_7HUB8Af-90" edge="1">
          <mxGeometry width="50" height="50" relative="1" as="geometry">
            <mxPoint x="105" y="2138" as="sourcePoint" />
            <mxPoint x="235" y="2138.42" as="targetPoint" />
          </mxGeometry>
        </mxCell>
        <mxCell id="mYMN0hBylBIN_7HUB8Af-92" value="视觉" style="rounded=1;whiteSpace=wrap;html=1;fontSize=20;strokeWidth=3;points=[[0,0.5,0,0,0],[0.5,0,0,0,0],[0.5,1,0,0,0],[1,0.5,0,0,0]];" parent="1" vertex="1">
          <mxGeometry x="277" y="3282" width="150" height="60" as="geometry" />
        </mxCell>
        <mxCell id="mYMN0hBylBIN_7HUB8Af-93" value="听觉" style="rounded=1;whiteSpace=wrap;html=1;fontSize=20;strokeWidth=3;points=[[0,0.5,0,0,0],[0.5,0,0,0,0],[0.5,1,0,0,0],[1,0.5,0,0,0]];" parent="1" vertex="1">
          <mxGeometry x="275" y="3596" width="150" height="60" as="geometry" />
        </mxCell>
        <mxCell id="mYMN0hBylBIN_7HUB8Af-94" value="" style="endArrow=classic;html=1;rounded=0;strokeWidth=3;" parent="1" source="mYMN0hBylBIN_7HUB8Af-63" target="mYMN0hBylBIN_7HUB8Af-93" edge="1">
          <mxGeometry width="50" height="50" relative="1" as="geometry">
            <mxPoint x="142" y="3684" as="sourcePoint" />
            <mxPoint x="272" y="3684.42" as="targetPoint" />
          </mxGeometry>
        </mxCell>
        <mxCell id="mYMN0hBylBIN_7HUB8Af-95" value="" style="endArrow=classic;html=1;rounded=0;strokeWidth=3;" parent="1" source="mYMN0hBylBIN_7HUB8Af-63" target="mYMN0hBylBIN_7HUB8Af-92" edge="1">
          <mxGeometry width="50" height="50" relative="1" as="geometry">
            <mxPoint x="130" y="3605" as="sourcePoint" />
            <mxPoint x="175" y="3105.42" as="targetPoint" />
          </mxGeometry>
        </mxCell>
        <mxCell id="mYMN0hBylBIN_7HUB8Af-97" value="调色" style="rounded=1;whiteSpace=wrap;html=1;fontSize=20;strokeWidth=3;points=[[0,0.5,0,0,0],[0.5,0,0,0,0],[0.5,1,0,0,0],[1,0.5,0,0,0]];" parent="1" vertex="1">
          <mxGeometry x="603" y="3967" width="150" height="60" as="geometry" />
        </mxCell>
        <mxCell id="mYMN0hBylBIN_7HUB8Af-98" value="" style="endArrow=classic;html=1;rounded=0;strokeWidth=3;" parent="1" source="mYMN0hBylBIN_7HUB8Af-83" target="mYMN0hBylBIN_7HUB8Af-97" edge="1">
          <mxGeometry width="50" height="50" relative="1" as="geometry">
            <mxPoint x="653" y="3890" as="sourcePoint" />
            <mxPoint x="783" y="3890.42" as="targetPoint" />
          </mxGeometry>
        </mxCell>
        <mxCell id="mYMN0hBylBIN_7HUB8Af-99" value="分析" style="rounded=1;whiteSpace=wrap;html=1;fontSize=20;strokeWidth=3;points=[[0,0.5,0,0,0],[0.5,0,0,0,0],[0.5,1,0,0,0],[1,0.5,0,0,0]];" parent="1" vertex="1">
          <mxGeometry x="-466" y="2495" width="150" height="60" as="geometry" />
        </mxCell>
        <mxCell id="mYMN0hBylBIN_7HUB8Af-101" value="" style="endArrow=classic;html=1;rounded=0;strokeWidth=3;" parent="1" source="mYMN0hBylBIN_7HUB8Af-59" target="mYMN0hBylBIN_7HUB8Af-99" edge="1">
          <mxGeometry width="50" height="50" relative="1" as="geometry">
            <mxPoint x="-215" y="2058" as="sourcePoint" />
            <mxPoint x="-85" y="2058.42" as="targetPoint" />
          </mxGeometry>
        </mxCell>
        <mxCell id="mYMN0hBylBIN_7HUB8Af-102" value="根据设计,&lt;div&gt;倒推资产需求,&lt;/div&gt;&lt;div&gt;得出制作方案.&lt;/div&gt;" style="rounded=1;whiteSpace=wrap;html=1;fontSize=20;strokeWidth=3;points=[[0,0.5,0,0,0],[0.5,0,0,0,0],[0.5,1,0,0,0],[1,0.5,0,0,0]];" parent="1" vertex="1">
          <mxGeometry x="-209" y="2459" width="277" height="110" as="geometry" />
        </mxCell>
        <mxCell id="mYMN0hBylBIN_7HUB8Af-103" value="" style="endArrow=classic;html=1;rounded=0;strokeWidth=3;" parent="1" source="mYMN0hBylBIN_7HUB8Af-99" target="mYMN0hBylBIN_7HUB8Af-102" edge="1">
          <mxGeometry width="50" height="50" relative="1" as="geometry">
            <mxPoint x="-377" y="2263" as="sourcePoint" />
            <mxPoint x="-247" y="2263.42" as="targetPoint" />
          </mxGeometry>
        </mxCell>
        <mxCell id="zgGLkuzP0elsbXzzcqMU-1" value="音乐" style="rounded=1;whiteSpace=wrap;html=1;fontSize=20;strokeWidth=3;points=[[0,0.5,0,0,0],[0.5,0,0,0,0],[0.5,1,0,0,0],[1,0.5,0,0,0]];" parent="1" vertex="1">
          <mxGeometry x="652" y="3596" width="150" height="60" as="geometry" />
        </mxCell>
        <mxCell id="zgGLkuzP0elsbXzzcqMU-2" value="" style="endArrow=classic;html=1;rounded=0;strokeWidth=3;" parent="1" source="mYMN0hBylBIN_7HUB8Af-93" target="zgGLkuzP0elsbXzzcqMU-1" edge="1">
          <mxGeometry width="50" height="50" relative="1" as="geometry">
            <mxPoint x="425" y="3523" as="sourcePoint" />
            <mxPoint x="555" y="3523.42" as="targetPoint" />
          </mxGeometry>
        </mxCell>
        <mxCell id="zgGLkuzP0elsbXzzcqMU-3" value="音效" style="rounded=1;whiteSpace=wrap;html=1;fontSize=20;strokeWidth=3;points=[[0,0.5,0,0,0],[0.5,0,0,0,0],[0.5,1,0,0,0],[1,0.5,0,0,0]];" parent="1" vertex="1">
          <mxGeometry x="654" y="3696" width="150" height="53" as="geometry" />
        </mxCell>
        <mxCell id="zgGLkuzP0elsbXzzcqMU-4" value="" style="endArrow=classic;html=1;rounded=0;strokeWidth=3;" parent="1" source="mYMN0hBylBIN_7HUB8Af-93" target="zgGLkuzP0elsbXzzcqMU-3" edge="1">
          <mxGeometry width="50" height="50" relative="1" as="geometry">
            <mxPoint x="472" y="3752" as="sourcePoint" />
            <mxPoint x="602" y="3752.42" as="targetPoint" />
          </mxGeometry>
        </mxCell>
      </root>
    </mxGraphModel>
  </diagram>
</mxfile>
